<?xml version="1.0" standalone="no"?>
<!DOCTYPE svg PUBLIC "-//W3C//DTD SVG 20010904//EN"
 "http://www.w3.org/TR/2001/REC-SVG-20010904/DTD/svg10.dtd">
<svg version="1.0" xmlns="http://www.w3.org/2000/svg"
 width="1024.000000pt" height="1024.000000pt" viewBox="0 0 1024.000000 1024.000000"
 preserveAspectRatio="xMidYMid meet">

<g transform="translate(0.000000,1024.000000) scale(0.100000,-0.100000)"
fill="#000000" stroke="none">
<path d="M5354 8150 c-253 -26 -486 -224 -549 -467 -13 -47 -15 -139 -15 -501
0 -291 3 -449 10 -462 13 -23 60 -50 90 -50 34 0 78 28 95 60 13 24 15 90 15
417 0 313 3 401 16 453 45 193 224 332 425 331 167 0 304 -94 395 -271 l29
-55 5 -430 c5 -464 5 -462 60 -490 36 -19 63 -19 98 -1 53 28 53 25 50 526
l-3 465 -32 80 c-111 273 -380 427 -689 395z"/>
<path d="M4096 7198 c-3 -24 -8 -119 -11 -213 -5 -157 -31 -719 -54 -1185 -6
-107 -13 -262 -16 -345 -6 -164 -8 -219 -30 -653 -8 -161 -15 -313 -15 -337
l0 -45 1471 0 1472 0 -7 93 c-3 50 -15 299 -26 552 -11 253 -25 543 -30 645
-10 187 -53 1081 -66 1373 l-7 157 -293 0 -294 0 0 -252 c0 -150 -5 -269 -11
-292 -6 -23 -29 -57 -58 -86 -39 -39 -58 -50 -103 -59 -49 -10 -62 -9 -110 9
-53 20 -104 63 -127 108 -7 12 -17 54 -24 93 -14 82 -31 94 -35 25 -5 -72 25
-153 73 -201 41 -41 120 -75 175 -75 51 0 133 33 172 71 l38 36 0 -158 0 -159
-212 1 c-117 0 -297 0 -400 -1 l-188 0 0 -80 0 -80 500 0 500 0 0 445 0 445
45 0 45 0 0 -295 c0 -258 2 -294 15 -289 13 5 15 47 15 295 l0 289 29 0 c17 0
32 -3 34 -7 3 -5 8 -107 11 -228 3 -121 11 -301 16 -400 19 -326 69 -1376 76
-1567 l7 -188 -1179 -2 c-648 -1 -1204 -2 -1234 -3 -30 0 -55 4 -55 10 1 40
18 410 30 650 8 160 17 342 20 405 3 63 12 261 20 440 22 474 35 799 35 848
l0 42 180 0 180 0 0 105 0 105 -284 0 -285 0 -5 -42z"/>
<path d="M5110 7135 l0 -105 325 0 325 0 0 105 0 105 -325 0 -325 0 0 -105z"/>
<path d="M5117 6920 c-3 -8 -7 -63 -9 -122 -3 -100 -5 -110 -34 -150 -59 -85
-153 -120 -241 -91 -26 8 -62 26 -79 39 -39 29 -84 116 -84 163 -1 20 -7 59
-15 86 l-14 50 0 -98 c-1 -85 2 -104 24 -146 62 -123 202 -173 329 -117 108
48 146 119 145 270 0 92 -11 147 -22 116z"/>
<path d="M4534 6195 c-4 -9 -2 -21 4 -27 15 -15 44 -1 40 19 -4 23 -36 29 -44
8z"/>
<path d="M4970 6190 c0 -13 7 -20 19 -20 25 0 38 20 20 31 -23 15 -39 10 -39
-11z"/>
<path d="M4640 6185 c0 -13 22 -15 140 -15 118 0 140 2 140 15 0 13 -22 15
-140 15 -118 0 -140 -2 -140 -15z"/>
<path d="M3496 6030 c-12 -27 -35 -51 -76 -78 l-59 -40 27 -11 c40 -17 80 -56
107 -102 21 -39 23 -40 30 -19 12 37 84 108 122 121 l36 11 -40 22 c-62 32
-80 49 -106 94 l-23 42 -18 -40z"/>
<path d="M7337 6031 c-18 -39 -106 -111 -137 -111 -8 -1 3 -10 25 -21 47 -23
91 -64 111 -102 l15 -28 32 48 c22 32 49 56 86 75 29 15 47 28 39 28 -29 0
-103 60 -128 104 l-26 45 -17 -38z"/>
<path d="M4470 5845 l0 -85 970 0 970 0 0 85 0 85 -970 0 -970 0 0 -85z"/>
<path d="M4470 5470 l0 -90 178 2 177 3 3 88 3 87 -181 0 -180 0 0 -90z"/>
<path d="M5070 5473 l0 -88 670 0 670 0 0 88 0 87 -670 0 -670 0 0 -87z"/>
<path d="M3500 5351 c-15 -38 -80 -98 -115 -107 -32 -8 -32 -20 0 -28 35 -9
90 -60 110 -102 l17 -37 15 31 c20 42 97 112 123 112 31 0 24 17 -13 29 -37
12 -87 60 -109 105 l-15 28 -13 -31z"/>
<path d="M7340 5351 c-15 -38 -81 -98 -115 -107 -32 -8 -32 -20 0 -28 35 -9
90 -60 110 -103 l17 -36 13 29 c16 38 99 114 125 114 30 0 24 14 -12 28 -45
17 -74 43 -102 92 l-23 41 -13 -30z"/>
<path d="M4468 5151 c-2 -21 -2 -60 0 -85 l4 -46 968 -2 969 -3 3 60 c2 33 2
72 0 88 l-3 27 -969 0 -968 0 -4 -39z"/>
<path d="M4570 4755 c0 -13 119 -15 1015 -15 896 0 1015 2 1015 15 0 13 -119
15 -1015 15 -896 0 -1015 -2 -1015 -15z"/>
<path d="M2538 4050 c-157 -27 -289 -111 -378 -241 -68 -98 -100 -209 -100
-343 0 -108 15 -171 62 -266 77 -153 222 -271 383 -310 65 -16 186 -14 254 4
51 13 56 13 108 -10 89 -40 192 -64 293 -70 l95 -6 50 133 c28 74 51 139 53
145 2 8 -14 7 -50 -3 -55 -16 -221 -23 -233 -11 -4 4 6 24 22 45 134 170 151
439 40 648 -108 202 -365 324 -599 285z m157 -244 c33 -7 74 -20 91 -29 50
-26 130 -121 153 -182 42 -111 21 -263 -47 -344 l-28 -34 -32 23 c-17 13 -64
61 -104 108 l-73 85 -58 -64 c-94 -103 -94 -102 -62 -147 16 -20 42 -52 59
-71 l31 -33 -38 6 c-149 27 -263 160 -275 319 -13 176 84 318 248 361 68 18
62 18 135 2z"/>
<path d="M8264 4051 c-287 -46 -504 -302 -504 -596 0 -212 127 -421 312 -514
194 -97 391 -93 603 14 l100 50 3 268 2 267 -195 0 -195 0 0 -121 0 -120 53 1
c116 4 107 10 107 -73 l0 -73 -57 -19 c-83 -28 -211 -26 -275 4 -164 78 -245
263 -189 429 29 84 64 135 121 177 63 46 116 64 198 66 75 2 135 -12 202 -46
l45 -23 77 87 77 86 -22 17 c-40 33 -121 75 -183 96 -68 24 -204 35 -280 23z"/>
<path d="M3850 3668 c0 -206 5 -391 11 -428 22 -138 123 -272 246 -327 69 -30
188 -41 278 -24 170 32 296 162 328 340 8 41 14 206 16 434 l3 367 -125 0
-126 0 -3 -382 -3 -383 -25 -45 c-60 -107 -214 -127 -297 -38 -54 58 -56 73
-57 476 l-1 372 -122 0 -123 0 0 -362z"/>
<path d="M5528 3993 c-25 -59 -275 -618 -318 -713 -130 -289 -170 -379 -170
-384 0 -3 57 -6 128 -6 l127 0 55 126 c30 69 58 128 61 129 3 2 99 5 214 7
l208 3 58 -130 57 -130 126 -3 c69 -1 126 0 126 2 0 3 -23 58 -51 123 -28 65
-71 163 -94 218 -24 55 -65 150 -92 210 -27 61 -96 217 -154 347 l-104 238
-80 0 -80 0 -17 -37z m151 -491 c28 -62 51 -115 51 -117 0 -3 -47 -5 -105 -4
-58 0 -105 4 -105 9 0 19 99 235 104 228 2 -1 26 -54 55 -116z"/>
<path d="M6460 3460 l0 -571 121 3 121 3 0 305 -1 305 30 -35 c36 -42 400
-525 420 -557 13 -21 21 -23 101 -23 l88 0 0 570 0 570 -122 0 -123 0 -3 -297
c-1 -163 -3 -298 -5 -299 -1 -2 -96 122 -210 274 -114 152 -216 287 -226 300
-17 20 -28 22 -105 22 l-86 0 0 -570z"/>
<path d="M4283 2531 c-93 -43 -116 -163 -42 -225 17 -14 64 -36 106 -48 81
-23 95 -38 68 -68 -25 -27 -61 -25 -124 7 l-54 26 -28 -34 c-16 -19 -27 -38
-25 -44 5 -17 67 -55 110 -66 51 -14 143 -6 184 15 34 17 72 80 72 117 0 36
-37 103 -67 121 -16 8 -52 21 -81 27 -30 6 -62 16 -73 21 -23 13 -25 43 -4 60
18 15 92 7 134 -14 28 -15 29 -14 55 26 25 38 25 41 9 54 -59 44 -172 56 -240
25z"/>
<path d="M5740 2530 c-56 -26 -86 -54 -111 -102 -59 -115 -18 -262 90 -326 61
-36 174 -38 236 -5 124 66 165 201 100 328 -42 83 -101 119 -199 123 -55 2
-81 -2 -116 -18z m176 -112 c41 -28 54 -56 54 -114 0 -37 -6 -51 -34 -82 -31
-33 -39 -37 -84 -37 -124 0 -183 136 -96 223 27 27 39 32 80 32 33 0 58 -7 80
-22z"/>
<path d="M6468 2543 l-68 -4 0 -234 0 -235 55 0 55 0 0 74 0 73 69 6 c131 11
189 68 179 175 -11 119 -87 156 -290 145z m134 -102 c35 -13 54 -55 40 -86
-13 -29 -48 -40 -97 -31 -35 7 -35 7 -35 60 0 29 3 56 7 59 9 10 58 9 85 -2z"/>
<path d="M4866 2518 c-8 -31 -8 -377 0 -417 7 -31 8 -32 58 -29 l51 3 3 93 3
92 99 0 100 0 0 -95 0 -95 55 0 55 0 0 235 0 235 -55 0 -55 0 0 -85 0 -85
-100 0 -100 0 0 85 0 85 -54 0 c-47 0 -54 -3 -60 -22z"/>
<path d="M1988 2389 c-22 -12 -23 -42 -3 -59 20 -16 1552 -15 1572 2 19 16 16
46 -6 58 -27 14 -1539 13 -1563 -1z"/>
<path d="M7330 2386 c-6 -8 -10 -25 -8 -38 l3 -23 550 -5 c303 -3 654 -3 781
-2 231 4 232 4 242 27 9 18 7 26 -7 39 -16 14 -96 16 -783 16 -655 0 -767 -2
-778 -14z"/>
</g>
</svg>
